<svg
        xmlns="http://www.w3.org/2000/svg"
        width="63"
        height="63"
        viewBox="0 0 63 63"
        fill="none"
>
    <style>
        :root {
        color-scheme: light;
        }
        path {
        fill: #62666D;
        }
        @media (prefers-color-scheme: dark) {
        path {
        fill: #F8F8F8;
        }
        }
    </style>
    <path d="M16.0801 28.0801C19.52 33.6799 22.9996 39.2399 26.5195 44.7598C30.0395 50.2798 33.6002 55.8003 37.2002 61.3203C37.3865 61.6308 37.5874 61.9395 37.7979 62.25C35.5576 62.739 33.2296 63 30.8398 63C22.4552 63 14.8258 59.8234 9.12012 54.6289V33.2402L16.0801 28.0801ZM47.7949 4.7832C56.8298 10.3509 62.8398 20.2336 62.8398 31.5C62.8398 42.7091 56.8909 52.5489 47.9326 58.1318C47.3432 57.4742 46.8049 56.8178 46.3203 56.1602C44.0803 53.0402 41.8396 49.9198 39.5996 46.7998C37.4397 43.6 35.28 40.4 33.1201 37.2002C31.6001 34.8802 30.0395 32.5602 28.4395 30.2402C26.8395 27.8402 25.3199 25.3999 23.8799 22.9199C27.3999 20.1199 30.8803 17.2804 34.3203 14.4004C37.7603 11.5204 41.2799 8.8002 44.8799 6.24023C45.8232 5.49909 46.7949 5.01364 47.7949 4.7832ZM30.8398 0C34.2352 0 37.5067 0.52188 40.5771 1.48633C39.9738 1.58644 39.4882 1.85081 39.1201 2.28027C38.0801 3.64026 36.9598 4.96025 35.7598 6.24023C34.5598 7.44015 33.2798 8.63993 31.9199 9.83984C28.2399 13.2798 24.5198 16.68 20.7598 20.04C16.9999 23.3999 13.0799 26.5997 9 29.6396L9.04492 8.4375C14.7586 3.20298 22.4189 0 30.8398 0Z"/>
</svg>
