<svg width="77" height="16" viewBox="0 0 77 16" fill="none" xmlns="http://www.w3.org/2000/svg">
<path d="M3.928 9.016L4.984 6.616C5.51733 5.48533 6.02933 4.92 6.52 4.92C6.776 4.92 6.968 5.02667 7.096 5.24C7.224 5.45333 7.288 5.67733 7.288 5.912C7.288 6.14667 7.23467 6.47733 7.128 6.904L5.88 9.304C5.624 9.816 5.496 10.2853 5.496 10.712C5.47467 10.9467 5.496 11.1707 5.56 11.384C5.64533 11.576 5.752 11.7787 5.88 11.992L7 14.008C7.128 14.2853 7.192 14.4773 7.192 14.584C7.192 14.776 7.10667 14.936 6.936 15.064C6.76533 15.2133 6.552 15.288 6.296 15.288C5.848 15.288 5.41067 14.968 4.984 14.328L3.832 12.152C3.49067 11.7253 3.24533 11.512 3.096 11.512C2.94667 11.512 2.872 11.704 2.872 12.088V13.336C2.872 14.552 2.49867 15.16 1.752 15.16C0.962667 15.16 0.568 14.648 0.568 13.624V2.136C0.568 1.66667 0.642667 1.31467 0.792 1.08C0.962667 0.823999 1.272 0.695999 1.72 0.695999C2.44533 0.695999 2.82933 1.22933 2.872 2.296V8.408C2.872 9.19733 3.04267 9.592 3.384 9.592C3.49067 9.592 3.672 9.4 3.928 9.016ZM11.694 2.232C10.8833 2.232 10.478 1.944 10.478 1.368C10.478 0.791999 10.8833 0.504 11.694 0.504C12.462 0.504 12.846 0.791999 12.846 1.368C12.846 1.944 12.462 2.232 11.694 2.232ZM11.694 15.128C10.9047 15.128 10.51 14.6373 10.51 13.656V6.584C10.51 5.58133 10.9047 5.08 11.694 5.08C12.4407 5.08 12.814 5.56 12.814 6.52V13.624C12.814 14.6267 12.4407 15.128 11.694 15.128ZM23.3298 7.576V13.4C23.3298 14.5307 22.9458 15.096 22.1778 15.096C21.3884 15.096 20.9938 14.5307 20.9938 13.4V7.576C20.9938 6.616 20.5884 6.136 19.7778 6.136C19.1164 6.136 18.7858 6.616 18.7858 7.576V13.4C18.7858 14.5307 18.3804 15.096 17.5698 15.096C16.7804 15.096 16.3858 14.6053 16.3858 13.624V7.224C16.3858 5.752 17.2498 5.016 18.9778 5.016H25.5378C27.1804 5.05867 28.0018 5.784 28.0018 7.192V13.56C28.0018 14.584 27.6071 15.096 26.8178 15.096C26.0284 15.096 25.6338 14.5307 25.6338 13.4V7.576C25.6338 6.616 25.2604 6.136 24.5138 6.136C23.7244 6.136 23.3298 6.616 23.3298 7.576ZM38.5485 7.576V13.4C38.5485 14.5307 38.1645 15.096 37.3965 15.096C36.6072 15.096 36.2125 14.5307 36.2125 13.4V7.576C36.2125 6.616 35.8072 6.136 34.9965 6.136C34.3352 6.136 34.0045 6.616 34.0045 7.576V13.4C34.0045 14.5307 33.5992 15.096 32.7885 15.096C31.9992 15.096 31.6045 14.6053 31.6045 13.624V7.224C31.6045 5.752 32.4685 5.016 34.1965 5.016H40.7565C42.3992 5.05867 43.2205 5.784 43.2205 7.192V13.56C43.2205 14.584 42.8258 15.096 42.0365 15.096C41.2472 15.096 40.8525 14.5307 40.8525 13.4V7.576C40.8525 6.616 40.4792 6.136 39.7325 6.136C38.9432 6.136 38.5485 6.616 38.5485 7.576ZM54.1833 12.792C54.1833 13.5813 53.9699 14.1467 53.5433 14.488C53.1379 14.8293 52.5406 15 51.7513 15H49.0953C47.3886 15 46.5353 14.264 46.5353 12.792V7.256C46.5353 6.57333 46.7379 6.02933 47.1432 5.624C47.5486 5.21867 48.1779 5.016 49.0312 5.016H51.7513C52.5406 5.016 53.1379 5.21867 53.5433 5.624C53.9699 6.02933 54.1833 6.584 54.1833 7.288V12.792ZM51.8793 11.96V8.056C51.8793 6.79733 51.4313 6.168 50.5353 6.168H50.1193C49.2873 6.168 48.8713 6.85067 48.8713 8.216V11.992C48.8713 13.272 49.2979 13.912 50.1513 13.912H50.6313C51.4633 13.912 51.8793 13.2613 51.8793 11.96ZM58.7268 14.328C57.9161 14.328 57.5108 13.976 57.5108 13.272C57.5108 12.4613 57.9161 12.056 58.7268 12.056C59.5374 12.056 59.9427 12.4613 59.9427 13.272C59.9427 13.976 59.5374 14.328 58.7268 14.328ZM64.8815 2.232C64.0708 2.232 63.6655 1.944 63.6655 1.368C63.6655 0.791999 64.0708 0.504 64.8815 0.504C65.6495 0.504 66.0335 0.791999 66.0335 1.368C66.0335 1.944 65.6495 2.232 64.8815 2.232ZM64.8815 15.128C64.0922 15.128 63.6975 14.6373 63.6975 13.656V6.584C63.6975 5.58133 64.0922 5.08 64.8815 5.08C65.6282 5.08 66.0015 5.56 66.0015 6.52V13.624C66.0015 14.6267 65.6282 15.128 64.8815 15.128ZM76.9333 12.792C76.9333 13.5813 76.7199 14.1467 76.2933 14.488C75.8879 14.8293 75.2906 15 74.5013 15H71.8453C70.1386 15 69.2853 14.264 69.2853 12.792V7.256C69.2853 6.57333 69.4879 6.02933 69.8932 5.624C70.2986 5.21867 70.9279 5.016 71.7812 5.016H74.5013C75.2906 5.016 75.8879 5.21867 76.2933 5.624C76.7199 6.02933 76.9333 6.584 76.9333 7.288V12.792ZM74.6293 11.96V8.056C74.6293 6.79733 74.1813 6.168 73.2853 6.168H72.8693C72.0373 6.168 71.6213 6.85067 71.6213 8.216V11.992C71.6213 13.272 72.0479 13.912 72.9013 13.912H73.3813C74.2133 13.912 74.6293 13.2613 74.6293 11.96Z" fill="#CDCDCD"/>
</svg>
