<svg width="1021" height="449" viewBox="0 0 1021 449" fill="none" xmlns="http://www.w3.org/2000/svg">
<path d="M52.2 216C36.2 216 24.1 211.5 15.9 202.5C7.7 193.3 3.6 180.2 3.6 163.2V151.2H34.8V165.6C34.8 179.2 40.5 186 51.9 186C57.5 186 61.7 184.4 64.5 181.2C67.5 177.8 69 172.4 69 165C69 156.2 67 148.5 63 141.9C59 135.1 51.6 127 40.8 117.6C27.2 105.6 17.7 94.8 12.3 85.2C6.9 75.4 4.2 64.4 4.2 52.2C4.2 35.6 8.4 22.8 16.8 13.8C25.2 4.59999 37.4 -1.14441e-05 53.4 -1.14441e-05C69.2 -1.14441e-05 81.1 4.59999 89.1 13.8C97.3 22.8 101.4 35.8 101.4 52.8V61.5H70.2V50.7C70.2 43.5 68.8 38.3 66 35.1C63.2 31.7 59.1 30 53.7 30C42.7 30 37.2 36.7 37.2 50.1C37.2 57.7 39.2 64.8 43.2 71.4C47.4 78 54.9 86 65.7 95.4C79.5 107.4 89 118.3 94.2 128.1C99.4 137.9 102 149.4 102 162.6C102 179.8 97.7 193 89.1 202.2C80.7 211.4 68.4 216 52.2 216ZM162.421 216C146.621 216 134.521 211.5 126.121 202.5C117.921 193.5 113.821 180.8 113.821 164.4V51.6C113.821 35.2 117.921 22.5 126.121 13.5C134.521 4.49999 146.621 -1.14441e-05 162.421 -1.14441e-05C178.221 -1.14441e-05 190.221 4.49999 198.421 13.5C206.821 22.5 211.021 35.2 211.021 51.6V73.8H179.821V49.5C179.821 36.5 174.321 30 163.321 30C152.321 30 146.821 36.5 146.821 49.5V166.8C146.821 179.6 152.321 186 163.321 186C174.321 186 179.821 179.6 179.821 166.8V134.7H211.021V164.4C211.021 180.8 206.821 193.5 198.421 202.5C190.221 211.5 178.221 216 162.421 216ZM225.765 2.99999H274.665C291.665 2.99999 304.065 6.99999 311.865 15C319.665 22.8 323.565 34.9 323.565 51.3V64.2C323.565 86 316.365 99.8 301.965 105.6V106.2C309.965 108.6 315.565 113.5 318.765 120.9C322.165 128.3 323.865 138.2 323.865 150.6V187.5C323.865 193.5 324.065 198.4 324.465 202.2C324.865 205.8 325.865 209.4 327.465 213H293.865C292.665 209.6 291.865 206.4 291.465 203.4C291.065 200.4 290.865 195 290.865 187.2V148.8C290.865 139.2 289.265 132.5 286.065 128.7C283.065 124.9 277.765 123 270.165 123H258.765V213H225.765V2.99999ZM270.765 93C277.365 93 282.265 91.3 285.465 87.9C288.865 84.5 290.565 78.8 290.565 70.8V54.6C290.565 47 289.165 41.5 286.365 38.1C283.765 34.7 279.565 33 273.765 33H258.765V93H270.765ZM389.461 216C373.261 216 360.861 211.4 352.261 202.2C343.661 193 339.361 180 339.361 163.2V52.8C339.361 36 343.661 23 352.261 13.8C360.861 4.59999 373.261 -1.14441e-05 389.461 -1.14441e-05C405.661 -1.14441e-05 418.061 4.59999 426.661 13.8C435.261 23 439.561 36 439.561 52.8V163.2C439.561 180 435.261 193 426.661 202.2C418.061 211.4 405.661 216 389.461 216ZM389.461 186C400.861 186 406.561 179.1 406.561 165.3V50.7C406.561 36.9 400.861 30 389.461 30C378.061 30 372.361 36.9 372.361 50.7V165.3C372.361 179.1 378.061 186 389.461 186ZM456.878 2.99999H489.878V183H544.178V213H456.878V2.99999ZM555.003 2.99999H588.003V183H642.303V213H555.003V2.99999ZM35.1 266H0.6V236H102.6V266H68.1V446H35.1V266ZM160.105 449C143.905 449 131.505 444.4 122.905 435.2C114.305 426 110.005 413 110.005 396.2V285.8C110.005 269 114.305 256 122.905 246.8C131.505 237.6 143.905 233 160.105 233C176.305 233 188.705 237.6 197.305 246.8C205.905 256 210.205 269 210.205 285.8V396.2C210.205 413 205.905 426 197.305 435.2C188.705 444.4 176.305 449 160.105 449ZM160.105 419C171.505 419 177.205 412.1 177.205 398.3V283.7C177.205 269.9 171.505 263 160.105 263C148.705 263 143.005 269.9 143.005 283.7V398.3C143.005 412.1 148.705 419 160.105 419ZM270.57 236H360.57V266H303.57V321.5H348.87V351.5H303.57V416H360.57V446H270.57V236ZM404.24 338.6L367.94 236H402.74L424.94 303.8H425.54L448.34 236H479.54L443.24 338.6L481.34 446H446.54L422.54 372.8H421.94L397.34 446H366.14L404.24 338.6ZM492.015 236H540.615C557.015 236 569.315 240.4 577.515 249.2C585.715 258 589.815 270.9 589.815 287.9V308.6C589.815 325.6 585.715 338.5 577.515 347.3C569.315 356.1 557.015 360.5 540.615 360.5H525.015V446H492.015V236ZM540.615 330.5C546.015 330.5 550.015 329 552.615 326C555.415 323 556.815 317.9 556.815 310.7V285.8C556.815 278.6 555.415 273.5 552.615 270.5C550.015 267.5 546.015 266 540.615 266H525.015V330.5H540.615ZM602.738 236H635.738V416H690.038V446H602.738V236ZM747.391 449C731.191 449 718.791 444.4 710.191 435.2C701.591 426 697.291 413 697.291 396.2V285.8C697.291 269 701.591 256 710.191 246.8C718.791 237.6 731.191 233 747.391 233C763.591 233 775.991 237.6 784.591 246.8C793.191 256 797.491 269 797.491 285.8V396.2C797.491 413 793.191 426 784.591 435.2C775.991 444.4 763.591 449 747.391 449ZM747.391 419C758.791 419 764.491 412.1 764.491 398.3V283.7C764.491 269.9 758.791 263 747.391 263C735.991 263 730.291 269.9 730.291 283.7V398.3C730.291 412.1 735.991 419 747.391 419ZM814.808 236H863.708C880.708 236 893.108 240 900.908 248C908.708 255.8 912.608 267.9 912.608 284.3V297.2C912.608 319 905.408 332.8 891.008 338.6V339.2C899.008 341.6 904.608 346.5 907.808 353.9C911.208 361.3 912.908 371.2 912.908 383.6V420.5C912.908 426.5 913.108 431.4 913.508 435.2C913.908 438.8 914.908 442.4 916.508 446H882.908C881.708 442.6 880.908 439.4 880.508 436.4C880.108 433.4 879.908 428 879.908 420.2V381.8C879.908 372.2 878.308 365.5 875.108 361.7C872.108 357.9 866.808 356 859.208 356H847.808V446H814.808V236ZM859.808 326C866.408 326 871.308 324.3 874.508 320.9C877.908 317.5 879.608 311.8 879.608 303.8V287.6C879.608 280 878.208 274.5 875.408 271.1C872.808 267.7 868.608 266 862.808 266H847.808V326H859.808ZM930.804 236H1020.8V266H963.804V321.5H1009.1V351.5H963.804V416H1020.8V446H930.804V236Z" fill="#D0D6E0"/>
</svg>
