<svg width="16" height="19" viewBox="0 0 16 19" fill="none" xmlns="http://www.w3.org/2000/svg">
<path d="M14.9316 2.81836L8.29492 0.556641C8.21484 0.529297 8.10742 0.515625 8 0.515625C7.89258 0.515625 7.78516 0.529297 7.70508 0.556641L1.06836 2.81836C0.90625 2.87305 0.773438 3.06055 0.773438 3.23242V12.6543C0.773438 12.8262 0.884766 13.0527 1.01953 13.1602L7.75195 18.4062C7.82031 18.459 7.9082 18.4863 7.99805 18.4863C8.08789 18.4863 8.17773 18.459 8.24414 18.4062L14.9766 13.1602C15.1113 13.0547 15.2227 12.8281 15.2227 12.6543V3.23242C15.2266 3.06055 15.0938 2.875 14.9316 2.81836ZM13.8203 12.2793L8 16.8145L2.17969 12.2793V3.92773L8 1.94336L13.8203 3.92773V12.2793ZM5.89453 8.35352C5.83594 8.27344 5.74219 8.22461 5.64063 8.22461H4.5625C4.43555 8.22461 4.36133 8.36914 4.43555 8.47266L6.9043 11.8711C6.93349 11.911 6.9717 11.9436 7.01582 11.966C7.05994 11.9884 7.10872 12 7.1582 12C7.20769 12 7.25647 11.9884 7.30059 11.966C7.34471 11.9436 7.38292 11.911 7.41211 11.8711L11.5645 6.1543C11.6387 6.05078 11.5645 5.90625 11.4375 5.90625H10.3594C10.2598 5.90625 10.1641 5.95508 10.1055 6.03516L7.1582 10.0938L5.89453 8.35352Z" fill="#F7F8F8" fill-opacity="0.701961"/>
</svg>
