<?xml version="1.0" encoding="utf-8"?>
<!-- Generator: Adobe Illustrator 24.1.1, SVG Export Plug-In . SVG Version: 6.00 Build 0)  -->
<svg version="1.1" id="Layer_1" xmlns="http://www.w3.org/2000/svg" xmlns:xlink="http://www.w3.org/1999/xlink" x="0px" y="0px"
	 viewBox="0 0 512 512" style="enable-background:new 0 0 512 512;" xml:space="preserve">
<g id="XMLID_1_">
	<path id="XMLID_3_" d="M503,233.2L279.7,9.8c-13-13-33.5-13-46.5,0L181,62l39.1,39.1c6.5-2.8,13-4.7,20.5-4.7
		c26.1,0,48.4,21.4,48.4,48.4c0,7.4-1.9,14.9-4.7,20.5l64.2,64.2c6.5-2.8,13-4.7,20.5-4.7c26.1,0,48.4,21.4,48.4,48.4
		c0,26.1-21.4,48.4-48.4,48.4s-48.4-21.4-48.4-48.4c0-7.4,1.9-14.9,4.7-20.5l-64.2-64.2l-4.7,0.9v133.1
		c18.6,6.5,31.6,24.2,31.6,45.6c0,26.1-21.4,48.4-48.4,48.4c-26.1,0-48.4-21.4-48.4-48.4c0-20.5,13-39.1,31.6-45.6V189.5
		c-18.6-6.5-31.6-24.2-31.6-45.6c0-7.4,1.9-14.9,4.7-20.5l-39.1-39.1l-147,148c-13,13-13,33.5,0,46.5l223.4,223.4
		c13,13,33.5,13,46.5,0l222.4-222.4C515.1,267.6,515.1,246.2,503,233.2L503,233.2z"/>
</g>
</svg>
