<svg xmlns="http://www.w3.org/2000/svg" viewBox="0 0 24 24" id="prismic">
    <path d="M14.231.421c.017-.005.035-.007.051-.011l.02-.006-.071.017z"></path>
    <path fill="#F6BA55" d="M14.609 22.226c-.939.73-2.4 1.357-3.862 1.774h7.514C21.391 24 24 21.392 24 18.261c0 0-.209-5.531-2.4-8.139-.104-.209-.313-.313-.521-.522v7.732a3.853 3.853 0 0 1-3.852 3.852H15.548c-.313.417-.626.73-.939 1.042z"></path>
    <path fill="#E35B46" d="m7.83 6.954-.003.038c.21-.209.522-.209.835-.209h6.783c.104 0 2.607 0 4.797 1.043V6.777a2.916 2.916 0 0 0-2.916-2.916H8.869A7.792 7.792 0 0 0 7.83 6.954z"></path>
    <path d="m20.244 7.826-.002-.001v.001z"></path>
    <path fill="#E35B46" d="M24 5.739C24 2.608 21.392 0 18.261 0c0 0-5.53.208-8.14 2.399-.223.12-.401.299-.518.515l-.003.007H17.331a3.853 3.853 0 0 1 3.852 3.852V8.452c.417.313.73.626 1.044.939.73.938 1.357 2.399 1.774 3.861V5.739z"></path>
    <path fill="#BF67C8" d="M0 5.739s.209 5.531 2.4 8.139c.104.209.313.313.521.522V6.668a3.853 3.853 0 0 1 3.852-3.852H8.452c.313-.417.626-.73.939-1.043.939-.73 2.4-1.357 3.862-1.774H5.739C2.608 0 0 2.608 0 5.739z"></path>
    <path fill="#F6BA55" d="M16.173 20.243v.001H17.221a2.916 2.916 0 0 0 2.916-2.916v-8.46a7.799 7.799 0 0 0-3.094-1.041l-.037-.003c.21.209.21.521.21.834v6.783c.001.106.001 2.61-1.043 4.802z"></path>
    <path fill="#659BEB" d="M3.756 16.174V17.222a2.916 2.916 0 0 0 2.916 2.916h8.457a7.809 7.809 0 0 0 1.04-3.093l.003-.037c-.208.209-.521.209-.834.209H8.557c-.104 0-2.608 0-4.799-1.043h-.002z"></path>
    <path fill="#BF67C8" d="M6.781 3.861h-.005A2.916 2.916 0 0 0 3.86 6.777V15.339a7.82 7.82 0 0 0 3.094 1.041l.037.003a1.938 1.938 0 0 1-.21-.832V8.66c-.104-.104-.104-2.608 1.045-4.799H6.781z"></path>
    <path fill="#659BEB" d="M2.921 15.548c-.417-.313-.73-.626-1.043-.939-.835-.939-1.461-2.4-1.878-3.861v7.513C0 21.392 2.608 24 5.739 24c0 0 5.53-.208 8.14-2.399.208-.105.313-.313.521-.522H6.773a3.853 3.853 0 0 1-3.852-3.852V15.548z"></path>
</svg>