<svg xmlns="http://www.w3.org/2000/svg" style="display: none;">
    <!-- HTML -->
    <symbol id="html5" viewBox="0 0 24 24">
        <path fill="#E44D26" d="M9.032 2l10.005 112.093 44.896 12.401 45.02-12.387L118.968 2H9.032zm89.126 26.539l-.627 7.172L97.255 39H44.59l1.257 14h50.156l-.336 3.471-3.233 36.119-.238 2.27L64 102.609v.002l-.034.018-28.177-7.423L33.876 74h13.815l.979 10.919L63.957 89H64v-.546l15.355-3.875L80.959 67H33.261l-3.383-38.117L29.549 25h68.939l-.33 3.539z"/>
    </symbol>
    <!-- CSS -->
    <symbol id="css3" viewBox="0 0 24 24">
        <path fill="#1572B6" d="M8.76 1l3.344 37.558 15.04 4.135 15.086-4.134L45.58 1H8.76zm23.982 12.422l-11.748-.052.456 5.376h10.838l-.78 8.725-6.108 1.727-6.154-1.805-.396-4.738h-5.514l.826 9.681 11.196 3.277 11.342-3.208 1.518-17.1-13.476.117z"/>
    </symbol>
    <!-- JavaScript -->
    <symbol id="javascript" viewBox="0 0 24 24">
        <path fill="#F7DF1E" d="M0 0h24v24H0V0zm22.034 18.276c-.175-1.095-.888-2.015-3.003-2.873-.736-.345-1.554-.585-1.797-1.14-.091-.33-.105-.51-.046-.705.15-.646.915-.84 1.515-.66.39.12.75.42.976.9 1.034-.676 1.034-.676 1.755-1.125-.27-.42-.404-.601-.586-.78-.63-.705-1.469-1.065-2.834-1.034l-.705.089c-.676.165-1.32.525-1.71 1.005-1.14 1.291-.811 3.541.569 4.471 1.365 1.02 3.361 1.244 3.616 2.205.24 1.17-.87 1.545-1.966 1.41-.811-.18-1.26-.586-1.755-1.336l-1.83 1.051c.21.48.45.689.81 1.109 1.74 1.756 6.09 1.666 6.871-1.004.029-.09.24-.705.074-1.65l.046.067zm-8.983-7.245h-2.248c0 1.938-.009 3.864-.009 5.805 0 1.232.063 2.363-.138 2.711-.33.689-1.18.601-1.566.48-.396-.196-.597-.466-.83-.855-.063-.105-.11-.196-.127-.196l-1.825 1.125c.305.63.75 1.172 1.324 1.517.855.51 2.004.675 3.207.405.783-.226 1.458-.691 1.811-1.411.51-.93.402-2.07.397-3.346.012-2.054 0-4.109 0-6.179l.004-.056z"/>
    </symbol>
    <!-- TypeScript -->
    <symbol id="typescript" viewBox="0 0 24 24">
        <path fill="#007acc" d="M2 63.91v62.5h125v-125H2zm100.73-5a15.56 15.56 0 017.82 4.5 20.58 20.58 0 013 4c0 .16-5.4 3.81-8.69 5.85-.12.08-.6-.44-1.13-1.23a7.09 7.09 0 00-5.87-3.53c-3.79-.26-6.23 1.73-6.21 5a4.58 4.58 0 00.54 2.34c.83 1.73 2.38 2.76 7.24 4.86 8.95 3.85 12.78 6.39 15.16 10 2.66 4 3.25 10.46 1.45 15.24-2 5.2-6.9 8.73-13.83 9.9a38.32 38.32 0 01-9.52-.1A23 23 0 0180 109.19c-1.15-1.27-3.39-4.58-3.25-4.82a9.34 9.34 0 011.15-.73l4.6-2.64 3.59-2.08.75 1.11a16.78 16.78 0 004.74 4.54c4 2.1 9.46 1.81 12.16-.62a5.43 5.43 0 00.69-6.92c-1-1.39-3-2.56-8.59-5-6.45-2.78-9.23-4.5-11.77-7.24a16.48 16.48 0 01-3.43-6.25 25 25 0 01-.22-8c1.33-6.23 6-10.58 12.82-11.87a31.66 31.66 0 019.49.26zm-29.34 5.24v5.12H57.16v46.23H45.65V69.26H29.38v-5a49.19 49.19 0 01.14-5.16c.06-.08 10-.12 22-.1h21.81z"/>
    </symbol>
    <!-- React -->
    <symbol id="react" viewBox="0 0 24 24">
        <path fill="#61DAFB" d="M12 9.861A2.139 2.139 0 1 0 12 14.139 2.139 2.139 0 1 0 12 9.861zM6.008 16.255l-.472-.12C2.018 15.246 0 13.737 0 11.996s2.018-3.25 5.536-4.139l.472-.119.133.468a23.53 23.53 0 0 0 1.363 3.578l.101.213-.101.213a23.307 23.307 0 0 0-1.363 3.578l-.133.467zM5.317 8.95c-2.674.751-4.315 1.9-4.315 3.046 0 1.145 1.641 2.294 4.315 3.046a24.95 24.95 0 0 1 1.182-3.046A24.752 24.752 0 0 1 5.317 8.95zM17.992 16.255l-.133-.469a23.357 23.357 0 0 0-1.364-3.577l-.101-.213.101-.213a23.42 23.42 0 0 0 1.364-3.578l.133-.468.473.119c3.517.889 5.535 2.398 5.535 4.14s-2.018 3.25-5.535 4.139l-.473.12zm-.491-4.259c.48 1.039.877 2.06 1.182 3.046 2.675-.752 4.315-1.901 4.315-3.046 0-1.146-1.641-2.294-4.315-3.046a24.788 24.788 0 0 1-1.182 3.046zM5.31 8.945l-.133-.467C4.188 4.992 4.488 2.494 6 1.622c1.483-.856 3.864.155 6.359 2.716l.34.349-.34.349a23.552 23.552 0 0 0-2.422 2.967l-.135.193-.235.02a23.657 23.657 0 0 0-3.785.61l-.472.119zm1.896-6.63c-.268 0-.505.058-.705.173-.994.573-1.17 2.565-.485 5.253a25.122 25.122 0 0 1 3.233-.501 24.847 24.847 0 0 1 2.052-2.544c-1.56-1.519-3.037-2.381-4.095-2.381zM16.795 22.677c-.001 0-.001 0 0 0-1.425 0-3.255-1.073-5.154-3.023l-.34-.349.34-.349a23.53 23.53 0 0 0 2.421-2.968l.135-.193.234-.02a23.63 23.63 0 0 0 3.787-.609l.472-.119.134.468c.987 3.484.688 5.983-.824 6.854a2.38 2.38 0 0 1-1.205.308zm-4.096-3.381c1.56 1.519 3.037 2.381 4.095 2.381h.001c.267 0 .505-.058.704-.173.994-.573 1.171-2.566.485-5.254a25.02 25.02 0 0 1-3.234.501 24.674 24.674 0 0 1-2.051 2.545zM18.69 8.945l-.472-.119a23.479 23.479 0 0 0-3.787-.61l-.234-.02-.135-.193a23.414 23.414 0 0 0-2.421-2.967l-.34-.349.34-.349C14.135 1.778 16.515.767 18 1.622c1.512.872 1.812 3.37.824 6.855l-.134.468zM14.75 7.24c1.142.104 2.227.273 3.234.501.686-2.688.509-4.68-.485-5.253-.988-.571-2.845.304-4.8 2.208A24.849 24.849 0 0 1 14.75 7.24zM7.206 22.677A2.38 2.38 0 0 1 6 22.369c-1.512-.871-1.812-3.369-.823-6.854l.132-.468.472.119c1.155.291 2.429.496 3.785.609l.235.02.134.193a23.596 23.596 0 0 0 2.422 2.968l.34.349-.34.349c-1.898 1.95-3.728 3.023-5.151 3.023zm-1.19-6.427c-.686 2.688-.509 4.681.485 5.254.987.563 2.843-.305 4.8-2.208a24.998 24.998 0 0 1-2.052-2.545 24.976 24.976 0 0 1-3.233-.501zM12 16.878c-.823 0-1.669-.036-2.516-.106l-.235-.02-.135-.193a30.388 30.388 0 0 1-1.35-2.122 30.354 30.354 0 0 1-1.166-2.228l-.1-.213.1-.213a30.3 30.3 0 0 1 1.166-2.228c.414-.716.869-1.43 1.35-2.122l.135-.193.235-.02a29.785 29.785 0 0 1 5.033 0l.234.02.134.193a30.006 30.006 0 0 1 2.517 4.35l.101.213-.101.213a29.6 29.6 0 0 1-2.517 4.35l-.134.193-.234.02c-.847.07-1.694.106-2.517.106zm-2.197-1.084c1.48.111 2.914.111 4.395 0a29.006 29.006 0 0 0 2.196-3.798 28.585 28.585 0 0 0-2.197-3.798 29.031 29.031 0 0 0-4.394 0 28.477 28.477 0 0 0-2.197 3.798 29.114 29.114 0 0 0 2.197 3.798z"/>
    </symbol>
    <!-- Next.js -->
    <symbol id="nextjs" viewBox="0 0 24 24">
        <path fill="#FFFCE1" d="M0 51.098V76.86h4.422V56.604L20.73 76.87h27.694v-4.113H30.553v-6.801h14.37v-4.113h-14.37v-6.621h17.87v-4.116H26.13v4.116h.002V76.68L5.527 51.098H0zm85.09.01v4.115h9.03v21.65h4.42v-21.65h8.847v-4.116H85.09zm-31.322.011 20.73 25.764h5.803L69.936 64.01l10.35-12.871-5.79.01-7.459 9.261-7.48-9.29h-5.79zm70.158 14.598c-.761 0-1.445.128-2.051.394-.602.263-1.078.633-1.426 1.108-.35.476-.525 1.032-.525 1.664 0 .77.258 1.384.78 1.847.517.464 1.227.809 2.124 1.036l1.24.312a7.02 7.02 0 0 1 1.026.334 1.91 1.91 0 0 1 .683.461 1.034 1.034 0 0 1 .248.697 1.25 1.25 0 0 1-.283.803 1.77 1.77 0 0 1-.76.535 3.11 3.11 0 0 1-1.132.192 3.24 3.24 0 0 1-1.116-.182 1.902 1.902 0 0 1-.804-.557 1.63 1.63 0 0 1-.352-.931h-1.941c.027.71.216 1.316.566 1.812s.836.873 1.46 1.13c.62.26 1.357.39 2.202.39.875 0 1.619-.136 2.233-.4.617-.27 1.088-.643 1.414-1.118.327-.479.488-1.028.488-1.658 0-.466-.09-.872-.266-1.217a2.726 2.726 0 0 0-.72-.887 4.227 4.227 0 0 0-1.028-.607 7.09 7.09 0 0 0-1.19-.385l-1.02-.25a6.975 6.975 0 0 1-.667-.195 2.82 2.82 0 0 1-.597-.285 1.304 1.304 0 0 1-.43-.418 1.037 1.037 0 0 1-.158-.58 1.21 1.21 0 0 1 .238-.717c.156-.21.385-.376.678-.5a2.771 2.771 0 0 1 1.056-.184c.585 0 1.062.126 1.43.383a1.424 1.424 0 0 1 .623 1.07h1.9a2.775 2.775 0 0 0-.513-1.607c-.333-.466-.792-.833-1.377-1.096-.584-.265-1.26-.394-2.033-.394zm-7.998.144v7.55c-.003.377-.062.697-.176.954a1.25 1.25 0 0 1-.506.584c-.218.133-.488.2-.803.2-.29 0-.546-.057-.771-.17a1.247 1.247 0 0 1-.522-.481 1.474 1.474 0 0 1-.195-.75h-1.963c0 .661.147 1.213.447 1.656a2.768 2.768 0 0 0 1.211 1.002 4.22 4.22 0 0 0 1.72.34c.697 0 1.311-.134 1.835-.4a2.97 2.97 0 0 0 1.236-1.149c.293-.499.444-1.093.448-1.787v-7.549h-1.961zm-53.332.059-8.844 10.982h5.805l5.937-7.38-2.898-3.602zm45.785 8.498c-.324 0-.6.112-.83.336a1.07 1.07 0 0 0-.344.807 1.082 1.082 0 0 0 .344.818c.23.225.506.336.83.336a1.105 1.105 0 0 0 .574-.156c.177-.101.318-.24.428-.416a1.115 1.115 0 0 0 .166-.582 1.097 1.097 0 0 0-.354-.807 1.133 1.133 0 0 0-.814-.336z"/>
    </symbol>
    <!-- Tailwind CSS -->
    <symbol id="tailwindcss" viewBox="0 0 24 24">
        <path d="M64.004 25.602c-17.067 0-27.73 8.53-32 25.597 6.398-8.531 13.867-11.73 22.398-9.597 4.871 1.214 8.352 4.746 12.207 8.66C72.883 56.629 80.145 64 96.004 64c17.066 0 27.73-8.531 32-25.602-6.399 8.536-13.867 11.735-22.399 9.602-4.87-1.215-8.347-4.746-12.207-8.66-6.27-6.367-13.53-13.738-29.394-13.738zM32.004 64c-17.066 0-27.73 8.531-32 25.602C6.402 81.066 13.87 77.867 22.402 80c4.871 1.215 8.352 4.746 12.207 8.66 6.274 6.367 13.536 13.738 29.395 13.738 17.066 0 27.73-8.53 32-25.597-6.399 8.531-13.867 11.73-22.399 9.597-4.87-1.214-8.347-4.746-12.207-8.66C55.128 71.371 47.868 64 32.004 64zm0 0" fill="#38bdf8"/>
    </symbol>
    <!-- GSAP -->
    <symbol id="gsap" viewBox="0 0 24 24">
        <path fill="#FFFCE1" d="M23.81 14.013v.013l-1.075 4.665c-.058.264-.322.458-.626.458H20.81a.218.218 0 0 0-.208.155c-1.198 4.064-2.82 6.858-4.962 8.535-1.822 1.428-4.068 2.093-7.069 2.093-2.696 0-4.514-.867-6.056-2.578C.478 25.09-.364 21.388.146 16.926 1.065 8.549 5.41.096 13.776.096c2.545-.023 4.543.762 5.933 2.33 1.47 1.657 2.216 4.154 2.22 7.421a.55.55 0 0 1-.549.536h-6.13a.42.42 0 0 1-.407-.41c-.05-2.259-.72-3.36-2.052-3.36-2.35 0-3.736 3.19-4.471 4.959-1.027 2.47-1.55 5.152-1.447 7.824.049 1.244.249 2.994 1.43 3.718 1.047.643 2.541.217 3.446-.495.904-.711 1.632-1.942 1.938-3.065.043-.156.046-.277.005-.332-.043-.055-.162-.068-.253-.068h-1.574a.572.572 0 0 1-.438-.202.42.42 0 0 1-.087-.362l1.076-4.674c.053-.24.27-.42.537-.453v-.011h10.33c.024 0 .049 0 .072.005.268.034.457.284.452.556h.002Z"/>
        <path fill="#FFFCE1" d="M41.594 8.65a.548.548 0 0 1-.548.531H35.4c-.37 0-.679-.3-.679-.665 0-1.648-.57-2.45-1.736-2.45s-1.918.717-1.94 1.968c-.025 1.395.764 2.662 3.01 4.84 2.957 2.774 4.142 5.232 4.085 8.48C38.047 26.605 34.476 30 29.042 30c-2.775 0-4.895-.743-6.305-2.207-1.431-1.486-2.087-3.668-1.95-6.485a.548.548 0 0 1 .549-.53h5.84a.55.55 0 0 1 .422.209.48.48 0 0 1 .106.384c-.065 1.016.112 1.775.512 2.195.256.272.613.41 1.058.41 1.079 0 1.711-.763 1.735-2.09.02-1.148-.343-2.155-2.321-4.19-2.555-2.496-4.846-5.075-4.775-9.13.042-2.351.976-4.502 2.631-6.056C28.294.868 30.687 0 33.465 0c2.783.02 4.892.813 6.269 2.359 1.304 1.466 1.932 3.582 1.862 6.29h-.002Z"/>
        <path fill="#FFFCE1" d="m59.096 29.012.037-27.932a.525.525 0 0 0-.529-.533h-8.738c-.294 0-.423.252-.507.42L36.707 28.842v.005l-.005.006c-.14.343.126.71.497.71h6.108c.33 0 .548-.1.656-.308l1.213-2.915c.149-.388.177-.424.601-.424h5.836c.406 0 .415.008.408.405l-.131 2.71a.525.525 0 0 0 .529.532h6.17a.522.522 0 0 0 .403-.182.458.458 0 0 0 .104-.369Zm-10.81-9.326c-.057 0-.102-.001-.138-.005a.146.146 0 0 1-.13-.183c.012-.041.029-.095.053-.163l4.377-10.827c.038-.107.086-.212.136-.314.071-.145.157-.155.184-.047.023.09-.502 11.118-.502 11.118-.041.413-.06.43-.467.464l-3.509-.041h-.008l.003-.002Z"/>
        <path fill="#FFFCE1" d="M71.545.547h-4.639c-.245 0-.52.13-.585.422l-6.455 28.029a.423.423 0 0 0 .088.364.572.572 0 0 0 .437.202h5.798c.311 0 .525-.153.583-.418 0 0 .703-3.168.704-3.178.05-.247-.036-.439-.258-.555-.105-.054-.209-.108-.312-.163l-1.005-.522-1-.522-.387-.201a.186.186 0 0 1-.102-.17.199.199 0 0 1 .198-.194l3.178.014c.95.005 1.901-.062 2.836-.234 6.58-1.215 10.95-6.485 11.076-13.656.107-6.12-3.309-9.221-10.15-9.221l-.005.003Zm-1.579 16.68h-.124c-.278 0-.328-.03-.337-.04-.004-.007 1.833-8.073 1.834-8.084.047-.233.045-.367-.099-.446-.184-.102-2.866-1.516-2.866-1.516a.188.188 0 0 1-.101-.172.197.197 0 0 1 .197-.192h4.241c1.32.04 2.056 1.221 2.021 3.237-.061 3.492-1.721 7.09-4.766 7.214Z"/>
    </symbol>
    <!-- Tailwind CSS -->
    <symbol id="tailwindcss" viewBox="0 0 24 24">
        <path fill="#1572B6" d="M8.76 1l3.344 37.558 15.04 4.135 15.086-4.134L45.58 1H8.76zm23.982 12.422l-11.748-.052.456 5.376h10.838l-.78 8.725-6.108 1.727-6.154-1.805-.396-4.738h-5.514l.826 9.681 11.196 3.277 11.342-3.208 1.518-17.1-13.476.117z"/>
    </symbol>
    <!-- shadcn/ui -->
    <symbol id="shadcn" viewBox="0 0 24 24">
        <defs>
            <style>
                .st0, .st1 {
                fill: none;
                }

                .st1 {
                stroke: #f7f8f8;
                stroke-linecap: round;
                stroke-linejoin: round;
                stroke-width: 32px;
                }
            </style>
        </defs>
        <rect class="st0" width="256" height="256"/>
        <line class="st1" x1="208" y1="128" x2="128" y2="208"/>
        <line class="st1" x1="192" y1="40" x2="40" y2="192"/>
    </symbol>
    <!-- Figma -->
    <symbol id="figma" viewBox="0 0 24 24">
        <path fill="#0acf83" d="M45.5 129c11.9 0 21.5-9.6 21.5-21.5V86H45.5C33.6 86 24 95.6 24 107.5S33.6 129 45.5 129zm0 0"/><path fill="#a259ff" d="M24 64.5C24 52.6 33.6 43 45.5 43H67v43H45.5C33.6 86 24 76.4 24 64.5zm0 0"/><path fill="#f24e1e" d="M24 21.5C24 9.6 33.6 0 45.5 0H67v43H45.5C33.6 43 24 33.4 24 21.5zm0 0"/><path fill="#ff7262" d="M67 0h21.5C100.4 0 110 9.6 110 21.5S100.4 43 88.5 43H67zm0 0"/><path fill="#1abcfe" d="M110 64.5c0 11.9-9.6 21.5-21.5 21.5S67 76.4 67 64.5 76.6 43 88.5 43 110 52.6 110 64.5zm0 0"/>
    </symbol>
    <!-- Git -->
    <symbol id="git" viewBox="0 0 24 24">
        <g fill="#f7f8f8"><path fill-rule="evenodd" clip-rule="evenodd" d="M64 5.103c-33.347 0-60.388 27.035-60.388 60.388 0 26.682 17.303 49.317 41.297 57.303 3.017.56 4.125-1.31 4.125-2.905 0-1.44-.056-6.197-.082-11.243-16.8 3.653-20.345-7.125-20.345-7.125-2.747-6.98-6.705-8.836-6.705-8.836-5.48-3.748.413-3.67.413-3.67 6.063.425 9.257 6.223 9.257 6.223 5.386 9.23 14.127 6.562 17.573 5.02.542-3.903 2.107-6.568 3.834-8.076-13.413-1.525-27.514-6.704-27.514-29.843 0-6.593 2.36-11.98 6.223-16.21-.628-1.52-2.695-7.662.584-15.98 0 0 5.07-1.623 16.61 6.19C53.7 35 58.867 34.327 64 34.304c5.13.023 10.3.694 15.127 2.033 11.526-7.813 16.59-6.19 16.59-6.19 3.287 8.317 1.22 14.46.593 15.98 3.872 4.23 6.215 9.617 6.215 16.21 0 23.194-14.127 28.3-27.574 29.796 2.167 1.874 4.097 5.55 4.097 11.183 0 8.08-.07 14.583-.07 16.572 0 1.607 1.088 3.49 4.148 2.897 23.98-7.994 41.263-30.622 41.263-57.294C124.388 32.14 97.35 5.104 64 5.104z"/><path d="M26.484 91.806c-.133.3-.605.39-1.035.185-.44-.196-.685-.605-.543-.906.13-.31.603-.395 1.04-.188.44.197.69.61.537.91zm2.446 2.729c-.287.267-.85.143-1.232-.28-.396-.42-.47-.983-.177-1.254.298-.266.844-.14 1.24.28.394.426.472.984.17 1.255zM31.312 98.012c-.37.258-.976.017-1.35-.52-.37-.538-.37-1.183.01-1.44.373-.258.97-.025 1.35.507.368.545.368 1.19-.01 1.452zm3.261 3.361c-.33.365-1.036.267-1.552-.23-.527-.487-.674-1.18-.343-1.544.336-.366 1.045-.264 1.564.23.527.486.686 1.18.333 1.543zm4.5 1.951c-.147.473-.825.688-1.51.486-.683-.207-1.13-.76-.99-1.238.14-.477.823-.7 1.512-.485.683.206 1.13.756.988 1.237zm4.943.361c.017.498-.563.91-1.28.92-.723.017-1.308-.387-1.315-.877 0-.503.568-.91 1.29-.924.717-.013 1.306.387 1.306.88zm4.598-.782c.086.485-.413.984-1.126 1.117-.7.13-1.35-.172-1.44-.653-.086-.498.422-.997 1.122-1.126.714-.123 1.354.17 1.444.663zm0 0"/></g>
    </symbol>
</svg>