<svg version="1.1" id="Layer_1" xmlns="http://www.w3.org/2000/svg" xmlns:xlink="http://www.w3.org/1999/xlink" x="0px" y="0px"
	 width="100%" viewBox="0 0 225 225" enable-background="new 0 0 225 225" xml:space="preserve">
<path fill="#121418" opacity="1.000000" stroke="none" 
	d="
M156.000000,226.000000 
	C104.000000,226.000000 52.500008,226.000000 1.000007,226.000000 
	C1.000005,151.000000 1.000005,76.000015 1.000002,1.000017 
	C75.999992,1.000011 150.999985,1.000011 225.999969,1.000006 
	C225.999985,75.999985 225.999985,150.999969 226.000000,225.999969 
	C202.833328,226.000000 179.666672,226.000000 156.000000,226.000000 
M45.071404,83.586845 
	C53.284355,100.408882 61.496162,117.231483 69.710617,134.052780 
	C76.197014,147.335434 82.551407,160.684906 89.221504,173.874680 
	C93.818390,182.964798 105.078339,189.603806 113.228142,188.855804 
	C125.232246,187.754028 133.531052,181.834015 138.794891,170.925827 
	C149.405731,148.937057 160.360611,127.114342 171.167206,105.219994 
	C175.573273,96.293236 180.269318,87.493881 184.292801,78.397446 
	C191.540405,62.011829 182.183304,44.052334 165.223297,41.173988 
	C150.261917,38.634838 139.264053,44.007175 132.198273,57.625111 
	C127.377884,66.915459 122.981544,76.426476 118.121284,85.694977 
	C117.071709,87.696526 114.845917,89.081291 113.161903,90.750153 
	C111.633003,89.110626 109.623405,87.713173 108.655518,85.791138 
	C103.503395,75.560074 98.689491,65.159363 93.609207,54.891258 
	C88.378876,44.319897 77.580040,38.069695 66.893936,39.204823 
	C54.107609,40.563046 43.286743,49.375961 40.479706,60.983944 
	C38.570423,68.879410 40.690536,76.107292 45.071404,83.586845 
z"/>
<path fill="#5DFDC9" opacity="1.000000" stroke="none" 
	d="
M44.927536,83.236832 
	C40.690536,76.107292 38.570423,68.879410 40.479706,60.983944 
	C43.286743,49.375961 54.107609,40.563046 66.893936,39.204823 
	C77.580040,38.069695 88.378876,44.319897 93.609207,54.891258 
	C98.689491,65.159363 103.503395,75.560074 108.655518,85.791138 
	C109.623405,87.713173 111.633003,89.110626 113.161911,90.750153 
	C114.845917,89.081291 117.071709,87.696526 118.121284,85.694977 
	C122.981544,76.426476 127.377884,66.915459 132.198273,57.625111 
	C139.264053,44.007175 150.261917,38.634838 165.223297,41.173988 
	C182.183304,44.052334 191.540405,62.011829 184.292801,78.397446 
	C180.269318,87.493881 175.573273,96.293236 171.167206,105.219994 
	C160.360611,127.114342 149.405731,148.937057 138.794891,170.925827 
	C133.531052,181.834015 125.232246,187.754028 113.228142,188.855804 
	C105.078339,189.603806 93.818390,182.964798 89.221504,173.874680 
	C82.551407,160.684906 76.197014,147.335434 69.710617,134.052780 
	C61.496162,117.231483 53.284355,100.408882 44.927536,83.236832 
z"/>
</svg>